<?xml version="1.0" standalone="no"?>
<svg xmlns="http://www.w3.org/2000/svg" viewBox="0 0 125.4 89.566" width="125.4" height="89.566"><rect fill="#202122" width="125.4" height="89.566" x="0" y="0"></rect><path fill="white" fill-rule="nonzero" d="M7.84 28.68L7.84 28.68Q5.64 28.68 3.86 27.58Q2.08 26.48 1.04 24.64Q0 22.80 0 20.52L0 20.52L0.04 8.04Q0.04 5.84 1.06 4.02Q2.08 2.20 3.86 1.10Q5.64 0 7.84 0L7.84 0Q10.04 0 11.80 1.08Q13.56 2.16 14.60 3.98Q15.64 5.80 15.64 8.04L15.64 8.04L15.64 9.88Q15.64 10.04 15.48 10.04L15.48 10.04L11 10.04Q10.84 10.04 10.84 9.88L10.84 9.88L10.84 8.04Q10.84 6.72 9.98 5.76Q9.12 4.80 7.84 4.80L7.84 4.80Q6.40 4.80 5.64 5.78Q4.88 6.76 4.88 8.04L4.88 8.04L4.88 20.52Q4.88 22 5.74 22.92Q6.60 23.84 7.84 23.84L7.84 23.84Q9.12 23.84 9.98 22.82Q10.84 21.80 10.84 20.52L10.84 20.52L10.84 18.68Q10.84 18.52 11 18.52L11 18.52L15.52 18.52Q15.68 18.52 15.68 18.68L15.68 18.68L15.68 20.52Q15.68 22.80 14.62 24.64Q13.56 26.48 11.80 27.58Q10.04 28.68 7.84 28.68ZM26 28.68L26 28.68Q23.84 28.68 22.06 27.58Q20.28 26.48 19.20 24.66Q18.12 22.84 18.12 20.64L18.12 20.64L18.16 7.96Q18.16 5.76 19.22 3.96Q20.28 2.16 22.08 1.08Q23.88 0 26 0L26 0Q28.16 0 29.92 1.08Q31.68 2.16 32.74 3.96Q33.80 5.76 33.80 7.96L33.80 7.96L33.84 20.64Q33.84 22.84 32.78 24.66Q31.72 26.48 29.94 27.58Q28.16 28.68 26 28.68ZM26 23.84L26 23.84Q27.20 23.84 28.10 22.86Q29 21.88 29 20.64L29 20.64L28.96 7.96Q28.96 6.64 28.12 5.72Q27.28 4.80 26 4.80L26 4.80Q24.76 4.80 23.88 5.70Q23 6.60 23 7.96L23 7.96L23 20.64Q23 21.96 23.88 22.90Q24.76 23.84 26 23.84ZM41.56 28.28L37.08 28.28Q36.88 28.28 36.88 28.08L36.88 28.08L36.96 0.60Q36.96 0.44 37.12 0.44L37.12 0.44L49.92 0.44Q50.12 0.44 50.12 0.60L50.12 0.60L50.12 5.12Q50.12 5.28 49.96 5.28L49.96 5.28L41.76 5.28L41.76 11.48L49.96 11.48Q50.12 11.48 50.12 11.68L50.12 11.68L50.16 16.20Q50.16 16.36 49.96 16.36L49.96 16.36L41.76 16.36L41.76 28.08Q41.76 28.28 41.56 28.28L41.56 28.28ZM58.80 28.28L54.32 28.28Q54.12 28.28 54.12 28.08L54.12 28.08L54.20 0.60Q54.20 0.44 54.36 0.44L54.36 0.44L67.16 0.44Q67.36 0.44 67.36 0.60L67.36 0.60L67.36 5.12Q67.36 5.28 67.20 5.28L67.20 5.28L59 5.28L59 11.48L67.20 11.48Q67.36 11.48 67.36 11.68L67.36 11.68L67.40 16.20Q67.40 16.36 67.20 16.36L67.20 16.36L59 16.36L59 28.08Q59 28.28 58.80 28.28L58.80 28.28ZM84.44 28.28L71.52 28.28Q71.36 28.28 71.36 28.08L71.36 28.08L71.40 0.60Q71.40 0.44 71.56 0.44L71.56 0.44L84.40 0.44Q84.56 0.44 84.56 0.64L84.56 0.64L84.56 5.12Q84.56 5.28 84.40 5.28L84.40 5.28L76.20 5.28L76.20 11.52L84.40 11.52Q84.56 11.52 84.56 11.68L84.56 11.68L84.60 16.20Q84.60 16.36 84.44 16.36L84.44 16.36L76.20 16.36L76.20 23.36L84.44 23.36Q84.60 23.36 84.60 23.56L84.60 23.56L84.60 28.12Q84.60 28.28 84.44 28.28L84.44 28.28ZM101.24 28.28L88.32 28.28Q88.16 28.28 88.16 28.08L88.16 28.08L88.20 0.60Q88.20 0.44 88.36 0.44L88.36 0.44L101.20 0.44Q101.36 0.44 101.36 0.64L101.36 0.64L101.36 5.12Q101.36 5.28 101.20 5.28L101.20 5.28L93 5.28L93 11.52L101.20 11.52Q101.36 11.52 101.36 11.68L101.36 11.68L101.40 16.20Q101.40 16.36 101.24 16.36L101.24 16.36L93 16.36L93 23.36L101.24 23.36Q101.40 23.36 101.40 23.56L101.40 23.56L101.40 28.12Q101.40 28.28 101.24 28.28L101.24 28.28Z" transform="translate(12 12) scale(1)"></path><path fill="white" fill-rule="nonzero" d="M13.08 28.28L0.16 28.28Q0 28.28 0 28.08L0 28.08L0.04 0.64Q0.04 0.44 0.24 0.44L0.24 0.44L4.68 0.44Q4.88 0.44 4.88 0.64L4.88 0.64L4.84 23.36L13.08 23.36Q13.28 23.36 13.28 23.56L13.28 23.56L13.28 28.08Q13.28 28.28 13.08 28.28L13.08 28.28ZM22.72 28.68L22.72 28.68Q20.56 28.68 18.78 27.58Q17 26.48 15.92 24.66Q14.84 22.84 14.84 20.64L14.84 20.64L14.88 7.96Q14.88 5.76 15.94 3.96Q17 2.16 18.80 1.08Q20.60 0 22.72 0L22.72 0Q24.88 0 26.64 1.08Q28.40 2.16 29.46 3.96Q30.52 5.76 30.52 7.96L30.52 7.96L30.56 20.64Q30.56 22.84 29.50 24.66Q28.44 26.48 26.66 27.58Q24.88 28.68 22.72 28.68ZM22.72 23.84L22.72 23.84Q23.92 23.84 24.82 22.86Q25.72 21.88 25.72 20.64L25.72 20.64L25.68 7.96Q25.68 6.64 24.84 5.72Q24 4.80 22.72 4.80L22.72 4.80Q21.48 4.80 20.60 5.70Q19.72 6.60 19.72 7.96L19.72 7.96L19.72 20.64Q19.72 21.96 20.60 22.90Q21.48 23.84 22.72 23.84ZM42.08 28.28L37.24 28.28Q37.08 28.28 37.04 28.08L37.04 28.08L31.52 0.60Q31.48 0.44 31.68 0.44L31.68 0.44L36.20 0.44Q36.36 0.44 36.40 0.60L36.40 0.60L39.68 18.92L42.88 0.60Q42.92 0.44 43.08 0.44L43.08 0.44L47.56 0.44Q47.76 0.44 47.72 0.60L47.72 0.60L42.28 28.08Q42.24 28.28 42.08 28.28L42.08 28.28ZM63.16 28.28L50.24 28.28Q50.08 28.28 50.08 28.08L50.08 28.08L50.12 0.60Q50.12 0.44 50.28 0.44L50.28 0.44L63.12 0.44Q63.28 0.44 63.28 0.64L63.28 0.64L63.28 5.12Q63.28 5.28 63.12 5.28L63.12 5.28L54.92 5.28L54.92 11.52L63.12 11.52Q63.28 11.52 63.28 11.68L63.28 11.68L63.32 16.20Q63.32 16.36 63.16 16.36L63.16 16.36L54.92 16.36L54.92 23.36L63.16 23.36Q63.32 23.36 63.32 23.56L63.32 23.56L63.32 28.12Q63.32 28.28 63.16 28.28L63.16 28.28ZM71.56 28.28L67.04 28.28Q66.88 28.28 66.88 28.08L66.88 28.08L66.96 0.60Q66.96 0.44 67.12 0.44L67.12 0.44L75.20 0.44Q77.36 0.44 79.18 1.50Q81 2.56 82.08 4.34Q83.16 6.12 83.16 8.36L83.16 8.36Q83.16 9.84 82.72 11.02Q82.28 12.20 81.68 13.02Q81.08 13.84 80.60 14.24L80.60 14.24Q82.76 16.64 82.76 19.88L82.76 19.88L82.80 28.08Q82.80 28.28 82.60 28.28L82.60 28.28L78.08 28.28Q77.92 28.28 77.92 28.16L77.92 28.16L77.92 19.88Q77.92 18.44 76.90 17.38Q75.88 16.32 74.40 16.32L74.40 16.32L71.76 16.32L71.72 28.08Q71.72 28.28 71.56 28.28L71.56 28.28ZM71.76 5.24L71.76 11.52L75.20 11.52Q76.44 11.52 77.40 10.60Q78.36 9.68 78.36 8.36L78.36 8.36Q78.36 7.08 77.42 6.16Q76.48 5.24 75.20 5.24L75.20 5.24L71.76 5.24ZM92.84 28.68L92.84 28.68Q90.68 28.68 88.90 27.58Q87.12 26.48 86.06 24.66Q85 22.84 85 20.64L85 20.64L85 18.80Q85 18.60 85.20 18.60L85.20 18.60L89.68 18.60Q89.84 18.60 89.84 18.80L89.84 18.80L89.84 20.64Q89.84 21.96 90.72 22.90Q91.60 23.84 92.84 23.84L92.84 23.84Q94.08 23.84 94.96 22.88Q95.84 21.92 95.84 20.64L95.84 20.64Q95.84 19.16 93.92 18.08L93.92 18.08Q93.28 17.72 91.92 16.96Q90.56 16.20 89.36 15.52L89.36 15.52Q87.16 14.24 86.10 12.30Q85.04 10.36 85.04 7.92L85.04 7.92Q85.04 5.68 86.12 3.90Q87.20 2.12 88.98 1.08Q90.76 0.04 92.84 0.04L92.84 0.04Q94.96 0.04 96.74 1.10Q98.52 2.16 99.58 3.94Q100.64 5.72 100.64 7.92L100.64 7.92L100.64 11.20Q100.64 11.36 100.48 11.36L100.48 11.36L96 11.36Q95.84 11.36 95.84 11.20L95.84 11.20L95.80 7.92Q95.80 6.52 94.92 5.64Q94.04 4.76 92.84 4.76L92.84 4.76Q91.60 4.76 90.72 5.70Q89.84 6.64 89.84 7.92L89.84 7.92Q89.84 9.24 90.40 10.12Q90.96 11 92.44 11.80L92.44 11.80Q92.64 11.92 93.22 12.22Q93.80 12.52 94.48 12.90Q95.16 13.28 95.70 13.56Q96.24 13.84 96.36 13.92L96.36 13.92Q98.36 15.04 99.52 16.66Q100.68 18.28 100.68 20.64L100.68 20.64Q100.68 22.92 99.62 24.74Q98.56 26.56 96.78 27.62Q95 28.68 92.84 28.68Z" transform="translate(12 48.68) scale(1.008)"></path></svg>